<svg width="39" height="30" viewBox="0 0 39 30" fill="none" xmlns="http://www.w3.org/2000/svg">
<path d="M38.1851 4.69398C37.7365 2.84633 36.415 1.39117 34.737 0.897344C31.6956 0 19.5 0 19.5 0C19.5 0 7.30442 0 4.26295 0.897344C2.58501 1.39125 1.26348 2.84633 0.814943 4.69398C0 8.04297 0 15.0303 0 15.0303C0 15.0303 0 22.0177 0.814943 25.3666C1.26348 27.2143 2.58501 28.6088 4.26295 29.1027C7.30442 30 19.5 30 19.5 30C19.5 30 31.6956 30 34.737 29.1027C36.415 28.6088 37.7365 27.2143 38.1851 25.3666C39 22.0177 39 15.0303 39 15.0303C39 15.0303 39 8.04297 38.1851 4.69398ZM15.5113 21.3743V8.68633L25.7045 15.0305L15.5113 21.3743Z" fill="white"/>
</svg>
